<svg width="25" height="25" viewBox="0 0 25 25" fill="none" xmlns="http://www.w3.org/2000/svg">
<path d="M17.0824 1.62421L14.3051 1.61963C11.1849 1.61963 9.16856 3.74472 9.16856 7.03386V9.53018H6.37615C6.13485 9.53018 5.93945 9.73113 5.93945 9.979V13.5959C5.93945 13.8438 6.13508 14.0445 6.37615 14.0445H9.16856V23.171C9.16856 23.4189 9.36396 23.6196 9.60526 23.6196H13.2486C13.4899 23.6196 13.6853 23.4187 13.6853 23.171V14.0445H16.9502C17.1915 14.0445 17.3869 13.8438 17.3869 13.5959L17.3883 9.979C17.3883 9.85999 17.3422 9.74601 17.2604 9.66178C17.1786 9.57756 17.0672 9.53018 16.9514 9.53018H13.6853V7.41402C13.6853 6.3969 13.9212 5.88057 15.211 5.88057L17.0819 5.87988C17.323 5.87988 17.5184 5.67893 17.5184 5.43129V2.0728C17.5184 1.82539 17.3232 1.62466 17.0824 1.62421Z" fill="#BFBFBF"/>
</svg>
